# This file uses centimeters as units for non-parametric coordinates.

mtllib RoomSize6.mtl
g default
v -3.000000 -3.000000 3.000000
v -2.675961 -3.000000 3.000000
v 2.675961 -3.000000 3.000000
v 3.000000 -3.000000 3.000000
v -3.000000 -2.666699 3.000000
v -2.675961 -2.666699 -2.556188
v 2.675961 -2.666699 -2.556188
v 3.000000 -2.666699 3.000000
v -3.000000 2.666700 3.000000
v -2.675961 2.666700 -2.556188
v 2.675961 2.666700 -2.556188
v 3.000000 2.666700 3.000000
v -3.000000 3.000000 3.000000
v -2.675961 3.000000 3.000000
v 2.675961 3.000000 3.000000
v 3.000000 3.000000 3.000000
v -3.000000 3.000000 -3.000000
v -2.675961 3.000000 -3.000000
v 2.675961 3.000000 -3.000000
v 3.000000 3.000000 -3.000000
v -3.000000 2.666699 -3.000000
v -2.675961 2.666699 -3.000000
v 2.675961 2.666699 -3.000000
v 3.000000 2.666699 -3.000000
v -3.000000 -2.666700 -3.000000
v -2.675961 -2.666700 -3.000000
v 2.675961 -2.666700 -3.000000
v 3.000000 -2.666700 -3.000000
v -3.000000 -3.000000 -3.000000
v -2.675961 -3.000000 -3.000000
v 2.675961 -3.000000 -3.000000
v 3.000000 -3.000000 -3.000000
vt 0.375000 0.000000
vt 0.458333 0.000000
vt 0.541667 0.000000
vt 0.625000 0.000000
vt 0.375000 0.083333
vt 0.458333 0.083333
vt 0.541667 0.083333
vt 0.625000 0.083333
vt 0.375000 0.166667
vt 0.458333 0.166667
vt 0.541667 0.166667
vt 0.625000 0.166667
vt 0.375000 0.250000
vt 0.458333 0.250000
vt 0.541667 0.250000
vt 0.625000 0.250000
vt 0.375000 0.500000
vt 0.458333 0.500000
vt 0.541667 0.500000
vt 0.625000 0.500000
vt 0.375000 0.583333
vt 0.458333 0.583333
vt 0.541667 0.583333
vt 0.625000 0.583333
vt 0.375000 0.666667
vt 0.458333 0.666667
vt 0.541667 0.666667
vt 0.625000 0.666667
vt 0.375000 0.750000
vt 0.458333 0.750000
vt 0.541667 0.750000
vt 0.625000 0.750000
vt 0.375000 1.000000
vt 0.458333 1.000000
vt 0.541667 1.000000
vt 0.625000 1.000000
vt 0.875000 0.000000
vt 0.875000 0.083333
vt 0.875000 0.166667
vt 0.875000 0.250000
vt 0.125000 0.000000
vt 0.125000 0.083333
vt 0.125000 0.166667
vt 0.125000 0.250000
vn 0.714505 0.694649 0.083340
vn 0.030152 0.997645 0.061605
vn 0.561339 0.563259 0.606331
vn 0.997768 0.029392 0.059953
vn -0.030152 0.997645 0.061605
vn -0.561339 0.563259 0.606331
vn -0.714505 0.694649 0.083340
vn -0.997768 0.029392 0.059953
vn 0.561339 -0.563259 0.606331
vn 0.997768 -0.029392 0.059953
vn -0.561339 -0.563259 0.606331
vn -0.997768 -0.029392 0.059953
vn 0.030152 -0.997645 0.061604
vn 0.714503 -0.694651 0.083340
vn -0.030152 -0.997645 0.061604
vn -0.714503 -0.694651 0.083340
vn 0.000000 1.000000 0.000000
vn 0.000000 1.000000 0.000000
vn 0.000000 1.000000 0.000000
vn 0.000000 1.000000 0.000000
vn 0.000000 1.000000 0.000000
vn 0.000000 1.000000 0.000000
vn 0.000000 1.000000 0.000000
vn 0.000000 1.000000 0.000000
vn 0.000000 0.000000 -1.000000
vn 0.000000 0.000000 -1.000000
vn 0.000000 0.000000 -1.000000
vn 0.000000 0.000000 -1.000000
vn 0.000000 0.000000 -1.000000
vn 0.000000 0.000000 -1.000000
vn 0.000000 0.000000 -1.000000
vn 0.000000 0.000000 -1.000000
vn 0.000000 0.000000 -1.000000
vn 0.000000 0.000000 -1.000000
vn 0.000000 0.000000 -1.000000
vn 0.000000 0.000000 -1.000000
vn 0.000000 0.000000 -1.000000
vn 0.000000 0.000000 -1.000000
vn 0.000000 0.000000 -1.000000
vn 0.000000 0.000000 -1.000000
vn 0.000000 -1.000000 0.000000
vn 0.000000 -1.000000 0.000000
vn 0.000000 -1.000000 0.000000
vn 0.000000 -1.000000 0.000000
vn 0.000000 -1.000000 0.000000
vn 0.000000 -1.000000 0.000000
vn 0.000000 -1.000000 0.000000
vn 0.000000 -1.000000 0.000000
vn 1.000000 0.000000 0.000000
vn 1.000000 0.000000 0.000000
vn 1.000000 0.000000 0.000000
vn 1.000000 0.000000 0.000000
vn 1.000000 0.000000 0.000000
vn 1.000000 0.000000 0.000000
vn 1.000000 0.000000 0.000000
vn 1.000000 0.000000 0.000000
vn -1.000000 0.000000 0.000000
vn -1.000000 0.000000 0.000000
vn -1.000000 0.000000 0.000000
vn -1.000000 0.000000 0.000000
vn -1.000000 0.000000 0.000000
vn -1.000000 0.000000 0.000000
vn -1.000000 0.000000 0.000000
vn -1.000000 0.000000 0.000000
s 1
g pCube1
usemtl initialShadingGroup
f 1/1/1 2/2/2 6/6/3 5/5/4
f 2/2/2 3/3/5 7/7/6 6/6/3
f 3/3/5 4/4/7 8/8/8 7/7/6
f 5/5/4 6/6/3 10/10/9 9/9/10
f 6/6/3 7/7/6 11/11/11 10/10/9
f 7/7/6 8/8/8 12/12/12 11/11/11
f 9/9/10 10/10/9 14/14/13 13/13/14
f 10/10/9 11/11/11 15/15/15 14/14/13
f 11/11/11 12/12/12 16/16/16 15/15/15
s 2
f 13/13/17 14/14/18 18/18/19 17/17/20
f 14/14/18 15/15/21 19/19/22 18/18/19
f 15/15/21 16/16/23 20/20/24 19/19/22
s 3
f 17/17/25 18/18/26 22/22/27 21/21/28
f 18/18/26 19/19/29 23/23/30 22/22/27
f 19/19/29 20/20/31 24/24/32 23/23/30
f 21/21/28 22/22/27 26/26/33 25/25/34
f 22/22/27 23/23/30 27/27/35 26/26/33
f 23/23/30 24/24/32 28/28/36 27/27/35
f 25/25/34 26/26/33 30/30/37 29/29/38
f 26/26/33 27/27/35 31/31/39 30/30/37
f 27/27/35 28/28/36 32/32/40 31/31/39
s 4
f 29/29/41 30/30/42 2/34/43 1/33/44
f 30/30/42 31/31/45 3/35/46 2/34/43
f 31/31/45 32/32/47 4/36/48 3/35/46
s 5
f 4/4/49 32/37/50 28/38/51 8/8/52
f 8/8/52 28/38/51 24/39/53 12/12/54
f 12/12/54 24/39/53 20/40/55 16/16/56
s 6
f 29/41/57 1/1/58 5/5/59 25/42/60
f 25/42/60 5/5/59 9/9/61 21/43/62
f 21/43/62 9/9/61 13/13/63 17/44/64
